<?xml version="1.0" encoding="UTF-8"?> <svg xmlns="http://www.w3.org/2000/svg" clip-rule="evenodd" fill-rule="evenodd" height="1509" image-rendering="optimizeQuality" shape-rendering="geometricPrecision" text-rendering="geometricPrecision" viewBox="-73.18 -143.23 9036.88 5552.98" width="2500"><path d="m1536.73 691.79h459.07v191.18c85.71-148.05 245.82-247.66 429.19-247.66 273.71 0 495.58 221.89 495.58 495.58v629.28c0 153.37-125.48 278.87-278.87 278.87h-180.2v-778.45c0-128.6-104.26-232.86-232.86-232.86s-232.86 104.26-232.86 232.86v499.59c0 153.37-125.48 278.87-278.87 278.87h-180.2v-1347.25l.01-.01zm6632.87-500.5v-124.59h27.9l33.28 88.19c3.08 8.21 5.3 14.35 6.71 18.45 1.6-4.52 4.12-11.19 7.53-19.98l33.86-86.66h24.91v124.59h-17.88v-104.23l-41.06 104.23h-16.76l-40.6-106.14v106.14h-17.88zm-83.87 0v-109.97h-46.38v-14.61h111.41v14.61h-46.38v109.97h-18.66zm-7884.1 854.34c-56.04-52.99-98.03-113.29-121.95-180.41-152.86-429.01 232.5-1008.45 955.25-833.08 108.79 26.4 221.21 69.46 331.97 130.74-175.27 335.55-260.64 313.57-416.23 297.4-71.42-7.42-148.41-35.05-233.43-4.08-173.82 63.32-211.32 281.69 128.32 350.48 215.11 53.23 481.08 196.63 560.43 419.34 152.86 429.01-232.5 1008.45-955.25 833.08-161.26-39.13-312.11-111.32-450.73-201.07l192.93-391.39c140.34 121.67 386.58 242.79 575.5 173.98 173.79-63.3 211.32-309.57-128.33-378.38-199.98-49.49-343.54-112.64-438.5-216.62l.02.01zm8303-975.45h459.07l-265.41 1010.74c-32.21 122.7-158.97 223.09-281.68 223.09h-235.98zm-155.87 2021.08c-171.26 0-310.1-138.84-310.1-310.11 0-171.26 138.84-310.1 310.1-310.1s310.11 138.84 310.11 310.1-138.84 310.11-310.11 310.11zm-1959.51-1399.49h459.07v137.57c117.4-120.41 274.54-194.04 447.25-194.04 363.45 0 658.08 325.93 658.08 727.98s-294.64 727.98-658.08 727.98c-172.71 0-329.85-73.64-447.25-194.03v431.2c0 153.37-125.48 278.87-278.87 278.87h-180.2v-1915.51zm770.29 979.35c-171.89 0-311.22-137.83-311.22-307.84 0-170.02 139.33-307.84 311.22-307.84s311.23 137.83 311.23 307.84-139.34 307.84-311.23 307.84zm-2418.71-979.35h459.07v137.57c117.4-120.41 274.54-194.04 447.25-194.04 363.45 0 658.08 325.93 658.08 727.98s-294.64 727.98-658.08 727.98c-172.71 0-329.85-73.64-447.25-194.03v431.2c0 153.37-125.48 278.87-278.87 278.87h-180.2v-1915.51zm770.29 979.35c-171.89 0-311.23-137.83-311.23-307.84 0-170.02 139.34-307.84 311.23-307.84s311.23 137.83 311.23 307.84-139.34 307.84-311.23 307.84zm-1388.47-979.35h459.07v1068.39c0 153.37-125.48 278.87-278.87 278.87h-180.2v-141.8c-117.4 120.41-274.54 194.04-447.26 194.04-363.46 0-658.08-325.93-658.08-727.98s294.63-727.98 658.08-727.98c172.71 0 329.86 73.64 447.26 194.03v-137.56zm-311.23 979.35c171.89 0 311.23-137.83 311.23-307.84 0-170.02-139.34-307.84-311.23-307.84s-311.23 137.83-311.23 307.84 139.34 307.84 311.23 307.84zm-524.27 1733.35h533.22l367.77 671.42 367.77-671.42h533.22l-634.38 1158.16-464 847.12h-533.22l464.01-847.12-634.38-1158.16zm-2785.51-620.82h389.85c333.5 0 606.36 272.86 606.36 606.36v97.29c0 333.5-272.86 606.36-606.36 606.36h-389.85v653.75h-501.64v-1963.76zm78.15 396.69h149.32c127.73 0 232.23 104.5 232.23 232.23v37.27c0 127.73-104.5 232.23-232.23 232.23h-227.47v-501.74h78.15zm2111.42 219.82h459.07v1347.25h-459.07v-141.8c-117.4 120.41-274.54 194.04-447.26 194.04-363.46 0-658.08-325.93-658.08-727.98s294.63-727.98 658.08-727.98c172.71 0 329.86 73.64 447.26 194.03zm-311.23 979.35c171.89 0 311.23-137.83 311.23-307.84 0-170.02-139.34-307.84-311.23-307.84s-311.23 137.83-311.23 307.84 139.34 307.84 311.23 307.84z" fill="#008efa"></path></svg> 